<svg width="271" height="135" viewBox="0 0 271 135" fill="none" xmlns="http://www.w3.org/2000/svg">
<path d="M16.8047 104.766H0L37.6875 0H55.9688L93.5859 104.766H76.8516L47.1797 19.0547H46.3359L16.8047 104.766ZM19.6172 63.7734H73.9688V76.9922H19.6172V63.7734ZM100.454 26.1562L117.681 56.8125L135.188 26.1562H151.993L127.524 65.5312L152.134 104.766H135.47L117.681 75.375L100.173 104.766H83.3681L107.767 65.5312L83.6494 26.1562H100.454ZM158.439 134.156C156.143 134.203 154.057 134.039 152.182 133.664C150.353 133.336 148.947 132.938 147.963 132.469L151.689 120.023L152.744 120.305C156.635 121.289 159.916 121.219 162.588 120.094C165.307 119.016 167.58 115.992 169.408 111.023L171.307 105.82L142.619 26.1562H159.002L178.83 87.1875H179.674L199.572 26.1562H215.955L183.611 115.172C182.111 119.297 180.213 122.766 177.916 125.578C175.619 128.438 172.853 130.57 169.619 131.977C166.432 133.43 162.705 134.156 158.439 134.156ZM231.823 106.453C226.854 106.453 222.354 105.539 218.323 103.711C214.292 101.836 211.104 99.1172 208.761 95.5547C206.417 91.9922 205.245 87.6562 205.245 82.5469C205.245 78.0938 206.089 74.4609 207.776 71.6484C209.511 68.7891 211.831 66.5156 214.737 64.8281C217.643 63.1406 220.878 61.875 224.44 61.0312C228.003 60.1875 231.659 59.5312 235.409 59.0625C240.143 58.5469 243.964 58.1016 246.87 57.7266C249.776 57.3516 251.886 56.7656 253.198 55.9688C254.557 55.125 255.237 53.7891 255.237 51.9609V51.6094C255.237 47.1562 253.972 43.7109 251.44 41.2734C248.956 38.8359 245.253 37.6172 240.331 37.6172C235.222 37.6172 231.167 38.7422 228.167 40.9922C225.214 43.1953 223.175 45.7031 222.05 48.5156L207.636 45.2109C209.37 40.4297 211.878 36.5859 215.159 33.6797C218.487 30.7266 222.284 28.5703 226.55 27.2109C230.862 25.8516 235.362 25.1719 240.05 25.1719C243.19 25.1719 246.518 25.5469 250.034 26.2969C253.55 27 256.854 28.3359 259.948 30.3047C263.089 32.2266 265.643 34.9922 267.612 38.6016C269.581 42.2109 270.565 46.875 270.565 52.5938V104.766H255.589V94.0078H255.026C254.089 95.9297 252.612 97.8516 250.597 99.7734C248.628 101.695 246.097 103.289 243.003 104.555C239.909 105.82 236.182 106.453 231.823 106.453ZM235.128 94.2188C239.393 94.2188 243.026 93.3984 246.026 91.7578C249.026 90.0703 251.323 87.8672 252.917 85.1484C254.511 82.4297 255.307 79.5469 255.307 76.5V66.3047C254.745 66.8203 253.69 67.3125 252.143 67.7812C250.597 68.25 248.839 68.6484 246.87 68.9766C244.901 69.3047 242.979 69.6094 241.104 69.8906C239.229 70.125 237.659 70.3125 236.393 70.4531C233.44 70.875 230.745 71.5312 228.307 72.4219C225.87 73.2656 223.901 74.5312 222.401 76.2188C220.948 77.8594 220.222 80.0391 220.222 82.7578C220.222 86.5547 221.628 89.4141 224.44 91.3359C227.253 93.2578 230.815 94.2188 235.128 94.2188Z" fill="url(#paint0_linear_1_24)"/>
<defs>
<linearGradient id="paint0_linear_1_24" x1="138.693" y1="24.0445" x2="138.693" y2="133.726" gradientUnits="userSpaceOnUse">
<stop stop-color="#15468F"/>
<stop offset="1" stop-color="#A9CBFB"/>
</linearGradient>
</defs>
</svg>
